<svg xmlns="http://www.w3.org/2000/svg" width="800" height="450" viewBox="0 0 800 450" role="img" aria-label="A bus stop with a route 42 sign, a bench with a waiting passenger, a timetable shelter and a bus arriving with route 42 on the front">
  <defs>
    <linearGradient id="s13sky" x1="0" y1="0" x2="0" y2="1">
      <stop offset="0" stop-color="#b6d9ef"/><stop offset="1" stop-color="#eef8fd"/>
    </linearGradient>
  </defs>
  <rect width="800" height="450" fill="url(#s13sky)"/>
  <rect y="300" width="800" height="150" fill="#a9a49c"/>
  <path d="M0 300 h800" stroke="#8e8a82" stroke-width="4"/>
  <rect y="404" width="800" height="8" fill="#dedad2"/>

  <g>
    <rect x="90" y="150" width="280" height="150" fill="#cfe0ea"/>
    <rect x="90" y="150" width="280" height="150" fill="#7fa8c0" opacity="0.25"/>
    <rect x="76" y="132" width="308" height="22" rx="6" fill="#3f6f8f" stroke="#2f566f" stroke-width="3"/>
    <rect x="86" y="164" width="16" height="136" fill="#5b87a3" stroke="#3f6f8f" stroke-width="3"/>
    <rect x="358" y="164" width="16" height="136" fill="#5b87a3" stroke="#3f6f8f" stroke-width="3"/>
    <rect x="118" y="182" width="100" height="86" fill="#e8f2f8" stroke="#3f6f8f" stroke-width="4"/>
    <g stroke="#5b87a3" stroke-width="3"><path d="M128 200 h80 M128 216 h80 M128 232 h80 M128 248 h80 M128 260 h50"/></g>
    <rect x="240" y="182" width="110" height="12" rx="4" fill="#b5623a" stroke="#7a5233" stroke-width="2"/>
    <rect x="248" y="194" width="8" height="42" fill="#8d6a4c"/>
    <rect x="334" y="194" width="8" height="42" fill="#8d6a4c"/>
  </g>

  <g>
    <circle cx="286" cy="224" r="14" fill="#f0c9a0" stroke="#6f4d33" stroke-width="3"/>
    <path d="M272 216 q14 -12 28 0 z" fill="#4a3626"/>
    <path d="M274 238 q12 -8 24 0 v8 h-24 z" fill="#3f8fd0" stroke="#2c6699" stroke-width="2"/>
    <rect x="272" y="246" width="28" height="10" rx="4" fill="#2f566f"/>
    <rect x="296" y="248" width="34" height="9" rx="4" fill="#2f566f"/>
    <rect x="322" y="256" width="9" height="30" rx="4" fill="#2f566f"/>
  </g>

  <g>
    <rect x="540" y="140" width="12" height="160" fill="#6f7d88" stroke="#4f5b64" stroke-width="3"/>
    <rect x="492" y="56" width="108" height="84" rx="8" fill="#2f6f8f" stroke="#204e66" stroke-width="4"/>
    <rect x="506" y="66" width="32" height="22" rx="5" fill="#eef8fd"/>
    <rect x="548" y="66" width="32" height="22" rx="5" fill="#eef8fd"/>
    <circle cx="514" cy="92" r="5" fill="#eef8fd"/>
    <circle cx="572" cy="92" r="5" fill="#eef8fd"/>
    <rect x="506" y="104" width="80" height="26" rx="5" fill="#ffe9a8" stroke="#204e66" stroke-width="2"/>
    <text x="546" y="124" font-family="Arial, Helvetica, sans-serif" font-size="20" font-weight="bold" fill="#204e66" text-anchor="middle">42</text>
  </g>

  <g>
    <rect x="620" y="176" width="170" height="152" rx="18" fill="#e0a83a" stroke="#8a6208" stroke-width="4"/>
    <rect x="620" y="176" width="170" height="18" rx="9" fill="#c98c22"/>
    <rect x="642" y="186" width="126" height="26" rx="5" fill="#2f5f7a" stroke="#204e66" stroke-width="3"/>
    <text x="705" y="206" font-family="Arial, Helvetica, sans-serif" font-size="20" font-weight="bold" fill="#ffe9a8" text-anchor="middle">42</text>
    <rect x="642" y="222" width="126" height="60" rx="6" fill="#cfe6f2" stroke="#8a6208" stroke-width="3"/>
    <path d="M660 224 l12 58 M740 224 l-12 58" stroke="#8a6208" stroke-width="3"/>
    <circle cx="656" cy="300" r="10" fill="#ffe9a8" stroke="#8a6208" stroke-width="3"/>
    <circle cx="754" cy="300" r="10" fill="#ffe9a8" stroke="#8a6208" stroke-width="3"/>
    <rect x="662" y="292" width="86" height="16" rx="4" fill="#c98c22" stroke="#8a6208" stroke-width="3"/>
    <rect x="628" y="314" width="154" height="14" rx="6" fill="#c98c22" stroke="#8a6208" stroke-width="3"/>
    <circle cx="664" cy="330" r="20" fill="#3a4247" stroke="#20262a" stroke-width="3"/>
    <circle cx="664" cy="330" r="8" fill="#c3ccd2"/>
    <circle cx="748" cy="330" r="20" fill="#3a4247" stroke="#20262a" stroke-width="3"/>
    <circle cx="748" cy="330" r="8" fill="#c3ccd2"/>
    <rect x="610" y="214" width="10" height="30" rx="4" fill="#3a4247"/>
    <rect x="792" y="214" width="10" height="30" rx="4" fill="#3a4247"/>
  </g>

  <g>
    <rect x="420" y="300" width="16" height="32" rx="6" fill="#8a5a34"/>
    <circle cx="428" cy="290" r="20" fill="#6cb86a"/>
  </g>
</svg>
