<svg xmlns="http://www.w3.org/2000/svg" width="800" height="450" viewBox="0 0 800 450" role="img" aria-label="A community garden with raised beds, a greenhouse, watering cans and a garden shed">
  <defs>
    <linearGradient id="s16sky" x1="0" y1="0" x2="0" y2="1">
      <stop offset="0" stop-color="#c4e8f7"/><stop offset="1" stop-color="#f2fbf1"/>
    </linearGradient>
  </defs>
  <rect width="800" height="450" fill="url(#s16sky)"/>
  <rect y="300" width="800" height="150" fill="#8dc978"/>
  <path d="M0 300 h800" stroke="#77b862" stroke-width="4"/>

  <g>
    <path d="M500 300 L500 190 L610 150 L720 190 L720 300 Z" fill="#cfe6f2" opacity="0.75"/>
    <path d="M500 300 L500 190 L610 150 L720 190 L720 300" fill="none" stroke="#7f9fb2" stroke-width="6"/>
    <path d="M610 150 L610 300 M500 240 L720 240 M555 220 L555 300 M665 220 L665 300" stroke="#a9c6d8" stroke-width="4"/>
    <g fill="#6cb86a">
      <rect x="520" y="256" width="24" height="40" rx="6"/><rect x="556" y="264" width="24" height="32" rx="6"/>
      <rect x="672" y="256" width="24" height="40" rx="6"/>
    </g>
  </g>

  <g>
    <rect x="70" y="200" width="180" height="100" fill="#c98a54"/>
    <path d="M58 200 L160 148 L262 200 Z" fill="#8a5a34"/>
    <rect x="130" y="240" width="60" height="60" fill="#7a5233"/>
    <circle cx="180" cy="272" r="5" fill="#f2dcae"/>
  </g>

  <g>
    <rect x="60" y="330" width="200" height="46" fill="#a97c50"/>
    <rect x="60" y="318" width="200" height="16" fill="#c19a68"/>
    <g fill="#4f9c5c">
      <circle cx="90" cy="312" r="10"/><circle cx="126" cy="306" r="12"/><circle cx="162" cy="312" r="10"/>
      <circle cx="198" cy="306" r="12"/><circle cx="234" cy="312" r="10"/>
    </g>
    <rect x="290" y="330" width="200" height="46" fill="#a97c50"/>
    <rect x="290" y="318" width="200" height="16" fill="#c19a68"/>
    <g fill="#d9534f">
      <circle cx="320" cy="310" r="9"/><circle cx="356" cy="304" r="11"/><circle cx="392" cy="310" r="9"/>
      <circle cx="428" cy="304" r="11"/><circle cx="464" cy="310" r="9"/>
    </g>
  </g>

  <g>
    <rect x="300" y="392" width="46" height="34" rx="6" fill="#5b87a3"/>
    <path d="M346 400 q22 -14 44 0" fill="none" stroke="#5b87a3" stroke-width="7"/>
    <rect x="410" y="396" width="40" height="30" rx="6" fill="#e2b23c"/>
    <path d="M450 402 q18 -12 36 0" fill="none" stroke="#e2b23c" stroke-width="6"/>
  </g>

  <g>
    <circle cx="640" cy="380" r="30" fill="#6cb86a"/><rect x="634" y="404" width="12" height="42" fill="#7a5233"/>
    <circle cx="712" cy="392" r="24" fill="#7fc26f"/><rect x="706" y="412" width="12" height="34" fill="#7a5233"/>
  </g>
</svg>