<svg xmlns="http://www.w3.org/2000/svg" width="800" height="450" viewBox="0 0 800 450" role="img" aria-label="A hospital building with a large red cross sign, an H signboard, a doctor in a white coat and an ambulance parked outside">
  <defs>
    <linearGradient id="s5sky" x1="0" y1="0" x2="0" y2="1">
      <stop offset="0" stop-color="#cfe6f7"/><stop offset="1" stop-color="#f4fafe"/>
    </linearGradient>
  </defs>
  <rect width="800" height="450" fill="url(#s5sky)"/>
  <rect y="340" width="800" height="110" fill="#c3ccd2"/>
  <path d="M0 340 h800" stroke="#a9b4bb" stroke-width="4"/>

  <g>
    <rect x="120" y="120" width="400" height="220" fill="#f2f5f7" stroke="#3f5d70" stroke-width="4"/>
    <rect x="120" y="120" width="400" height="18" fill="#d3dde3"/>
    <g fill="#bcd9ea" stroke="#3f5d70" stroke-width="3">
      <rect x="362" y="168" width="50" height="44"/>
      <rect x="446" y="168" width="50" height="44"/>
    </g>
    <rect x="300" y="250" width="90" height="90" fill="#5d7d92" stroke="#3f5d70" stroke-width="4"/>
    <path d="M345 250 v90" stroke="#3f5d70" stroke-width="3"/>
    <rect x="290" y="230" width="110" height="20" fill="#9db6c6" stroke="#3f5d70" stroke-width="3"/>
    <rect x="120" y="330" width="400" height="12" fill="#b9c4cb"/>

    <rect x="148" y="158" width="112" height="112" rx="10" fill="#ffffff" stroke="#3f5d70" stroke-width="4"/>
    <rect x="192" y="170" width="24" height="88" fill="#e23c3c"/>
    <rect x="160" y="202" width="88" height="24" fill="#e23c3c"/>

    <rect x="312" y="180" width="66" height="44" rx="6" fill="#2f6f8f" stroke="#3f5d70" stroke-width="3"/>
    <text x="345" y="213" font-family="Arial, Helvetica, sans-serif" font-size="30" font-weight="bold" fill="#ffffff" text-anchor="middle">H</text>
  </g>

  <g>
    <circle cx="250" cy="296" r="16" fill="#f0c9a0" stroke="#3f5d70" stroke-width="3"/>
    <path d="M236 284 q14 -12 28 0 z" fill="#ffffff" stroke="#3f5d70" stroke-width="3"/>
    <path d="M234 312 q16 -9 32 0 v28 h-32 z" fill="#ffffff" stroke="#3f5d70" stroke-width="3"/>
    <path d="M250 318 v-8" stroke="#3f5d70" stroke-width="3"/>
    <circle cx="250" cy="324" r="4" fill="#3f5d70"/>
    <rect x="240" y="340" width="7" height="18" fill="#3f5d70"/>
    <rect x="253" y="340" width="7" height="18" fill="#3f5d70"/>
  </g>

  <g>
    <rect x="545" y="252" width="195" height="88" rx="12" fill="#ffffff" stroke="#3f5d70" stroke-width="4"/>
    <rect x="545" y="252" width="195" height="16" rx="8" fill="#d3dde3"/>
    <rect x="558" y="276" width="46" height="30" rx="4" fill="#cfe6f2" stroke="#3f5d70" stroke-width="3"/>
    <rect x="614" y="276" width="106" height="30" rx="4" fill="#cfe6f2" stroke="#3f5d70" stroke-width="3"/>
    <rect x="648" y="270" width="52" height="44" fill="#ffffff"/>
    <rect x="668" y="282" width="12" height="24" fill="#e23c3c"/>
    <rect x="652" y="288" width="24" height="12" fill="#e23c3c"/>
    <circle cx="580" cy="340" r="20" fill="#3a4247" stroke="#20262a" stroke-width="3"/>
    <circle cx="580" cy="340" r="8" fill="#c3ccd2"/>
    <circle cx="706" cy="340" r="20" fill="#3a4247" stroke="#20262a" stroke-width="3"/>
    <circle cx="706" cy="340" r="8" fill="#c3ccd2"/>
    <rect x="600" y="240" width="40" height="14" rx="6" fill="#e23c3c" stroke="#3f5d70" stroke-width="3"/>
  </g>
</svg>
