<svg xmlns="http://www.w3.org/2000/svg" width="800" height="450" viewBox="0 0 800 450" role="img" aria-label="A small shop with a striped awning, display window and a hanging sign">
  <defs>
    <linearGradient id="s8sky" x1="0" y1="0" x2="0" y2="1">
      <stop offset="0" stop-color="#ffe0c2"/><stop offset="1" stop-color="#fff7ef"/>
    </linearGradient>
    <pattern id="awn8" width="24" height="14" patternUnits="userSpaceOnUse">
      <rect width="24" height="14" fill="#2f8f7a"/><rect width="12" height="14" fill="#f0f7f4"/>
    </pattern>
  </defs>
  <rect width="800" height="450" fill="url(#s8sky)"/>
  <rect y="340" width="800" height="110" fill="#bdb3a4"/>
  <path d="M0 340 h800" stroke="#a49a8b" stroke-width="4"/>

  <g>
    <rect x="150" y="150" width="440" height="190" fill="#f6ece0"/>
    <rect x="150" y="150" width="440" height="16" fill="#d9c9b4"/>
    <rect x="128" y="120" width="484" height="34" fill="url(#awn8)"/>
    <rect x="128" y="120" width="484" height="7" fill="#22685a"/>
    <rect x="196" y="216" width="160" height="124" fill="#cfe6ef"/>
    <g stroke="#7fa5b5" stroke-width="3"><path d="M250 216 v124 M304 216 v124"/><path d="M196 260 h160"/></g>
    <rect x="396" y="216" width="150" height="124" fill="#6f4f38"/>
    <rect x="396" y="216" width="150" height="10" fill="#5a3f2c"/>
    <circle cx="526" cy="280" r="7" fill="#e8c37a"/>
    <rect x="392" y="200" width="158" height="16" fill="#8d6a4c"/>

    <g>
      <rect x="672" y="60" width="14" height="60" fill="#8d8578"/>
      <rect x="614" y="104" width="112" height="52" rx="8" fill="#2f8f7a"/>
      <circle cx="670" cy="130" r="14" fill="#f0f7f4"/>
      <path d="M660 130 h20 M670 120 v20" stroke="#2f8f7a" stroke-width="5"/>
    </g>
  </g>

  <g>
    <rect x="214" y="238" width="28" height="22" fill="#e2b23c"/>
    <rect x="250" y="238" width="28" height="22" fill="#d9534f"/>
    <rect x="286" y="238" width="28" height="22" fill="#4f9c3c"/>
    <rect x="230" y="278" width="30" height="26" fill="#d9534f"/>
    <rect x="268" y="278" width="30" height="26" fill="#e2b23c"/>
  </g>
  <g>
    <rect x="616" y="296" width="26" height="44" rx="5" fill="#b5623a"/>
    <circle cx="629" cy="288" r="20" fill="#6cb86a"/><rect x="623" y="300" width="12" height="40" fill="#7a5233"/>
  </g>
</svg>