<svg xmlns="http://www.w3.org/2000/svg" width="800" height="450" viewBox="0 0 800 450" role="img" aria-label="A temple with a tall decorated tower, arched doorway and steps">
  <defs>
    <linearGradient id="s3sky" x1="0" y1="0" x2="0" y2="1">
      <stop offset="0" stop-color="#ffd9a0"/><stop offset="1" stop-color="#fff3dd"/>
    </linearGradient>
  </defs>
  <rect width="800" height="450" fill="url(#s3sky)"/>
  <circle cx="110" cy="90" r="44" fill="#ffe08a" opacity="0.85"/>
  <rect y="330" width="800" height="120" fill="#d8c6a6"/>

  <g>
    <rect x="300" y="120" width="200" height="210" fill="#e9a94f"/>
    <polygon points="400,34 452,120 348,120" fill="#d97b28"/>
    <rect x="386" y="58" width="28" height="62" fill="#f2c56b"/>
    <circle cx="400" cy="72" r="9" fill="#b4531f"/>
    <rect x="288" y="126" width="224" height="14" fill="#c96a20"/>
    <rect x="300" y="200" width="200" height="130" fill="#f0bd63"/>
    <rect x="288" y="204" width="224" height="16" fill="#c96a20"/>
    <path d="M360 330 v-70 a40 40 0 0 1 80 0 v70 z" fill="#6d4a2f"/>
    <path d="M360 330 v-70 a40 40 0 0 1 80 0 v70" fill="none" stroke="#f7d99b" stroke-width="6"/>
    <g fill="#b4531f">
      <circle cx="400" cy="150" r="7"/>
      <rect x="316" y="238" width="12" height="12" rx="3"/><rect x="472" y="238" width="12" height="12" rx="3"/>
    </g>
  </g>

  <g>
    <rect x="250" y="330" width="300" height="16" fill="#cbb28c"/>
    <rect x="235" y="346" width="330" height="16" fill="#bda280"/>
    <rect x="222" y="362" width="356" height="16" fill="#ae9271"/>
    <rect x="300" y="140" width="14" height="190" fill="#b4531f"/>
    <path d="M307 150 h46 v24 h-46 z" fill="#e2574c"/>
  </g>

  <g>
    <rect x="120" y="300" width="18" height="30" fill="#9c8570"/>
    <path d="M100 296 h58 l-10 -34 h-38 z" fill="#c95a2e"/>
    <circle cx="129" cy="292" r="7" fill="#ffd97a"/>
    <rect x="662" y="300" width="18" height="30" fill="#9c8570"/>
    <path d="M642 296 h58 l-10 -34 h-38 z" fill="#c95a2e"/>
    <circle cx="671" cy="292" r="7" fill="#ffd97a"/>
  </g>
</svg>